<?xml version="1.0" encoding="UTF-8"?>
<svg version="1.1" xmlns="http://www.w3.org/2000/svg" width="176" height="82">
<path d="M0 0 C1.31225555 -0.01409912 2.62451111 -0.02819824 3.97653198 -0.04272461 C5.42389262 -0.03300383 6.87124985 -0.02276303 8.31860352 -0.01205444 C9.84816529 -0.01883221 11.3777189 -0.02773624 12.90725708 -0.03860474 C17.05612851 -0.06138622 21.20437783 -0.05256683 25.35326004 -0.03670931 C29.69646116 -0.02404422 34.03960927 -0.03579211 38.3828125 -0.04364014 C45.67628537 -0.05273495 52.96950503 -0.0407533 60.26293945 -0.01693726 C68.69339127 0.01027383 77.12323849 0.00145954 85.55367565 -0.02606928 C92.79376238 -0.04876424 100.03366716 -0.05195859 107.27377796 -0.03887594 C111.59716005 -0.0310835 115.92025802 -0.03003397 120.24362183 -0.04655838 C124.30847325 -0.06100968 128.37254575 -0.05097025 132.43731308 -0.0220871 C133.92843203 -0.01547968 135.41961661 -0.01736822 136.91070938 -0.02840042 C138.94712217 -0.0420774 140.98367834 -0.02187883 143.02001953 0 C144.72896141 0.00282769 144.72896141 0.00282769 146.47242737 0.00571251 C150.48216313 0.83629035 151.9904821 2.47209935 154.51000977 5.63491821 C155.07763672 9.04824829 155.07763672 9.04824829 154.99829102 12.90444946 C154.98767891 13.92595345 154.98767891 13.92595345 154.97685242 14.96809387 C154.94901045 17.12901816 154.88630503 19.28728643 154.82250977 21.44741821 C154.79741308 22.91808373 154.7746023 24.38879015 154.75415039 25.85952759 C154.69922164 29.45217778 154.61302624 33.04328849 154.51000977 36.63491821 C155.50000977 35.97491821 156.49000977 35.31491821 157.51000977 34.63491821 C160.19750977 34.50991821 160.19750977 34.50991821 162.51000977 34.63491821 C165.05852538 39.50857358 164.84193048 44.27480079 164.82250977 49.63491821 C164.83862305 50.52437134 164.85473633 51.41382446 164.87133789 52.33023071 C164.87502319 57.26853699 164.6961284 60.59972839 161.51000977 64.63491821 C159.86000977 64.30491821 158.21000977 63.97491821 156.51000977 63.63491821 C156.51000977 62.97491821 156.51000977 62.31491821 156.51000977 61.63491821 C155.85000977 61.63491821 155.19000977 61.63491821 154.51000977 61.63491821 C154.55641602 62.6597229 154.60282227 63.68452759 154.65063477 64.74038696 C154.68816988 66.10103477 154.72456817 67.46171427 154.76000977 68.82241821 C154.79352539 69.49595337 154.82704102 70.16948853 154.86157227 70.86343384 C154.932192 74.48269512 154.61554188 76.46602172 152.68188477 79.56069946 C149.46393794 82.63395444 146.83501711 82.76309594 142.56713867 82.79605103 C141.06009872 82.81046234 141.06009872 82.81046234 139.52261353 82.82516479 C138.43821991 82.82941467 137.35382629 82.83366455 136.23657227 82.83804321 C134.56272964 82.84659332 134.56272964 82.84659332 132.85507202 82.85531616 C130.49299061 82.86476655 128.13089601 82.8713003 125.76879883 82.87515259 C122.15626026 82.8848611 118.54428986 82.91588604 114.93188477 82.94741821 C112.63761731 82.95394802 110.34334579 82.95919858 108.04907227 82.96304321 C106.42855453 82.98156342 106.42855453 82.98156342 104.77529907 83.00045776 C95.32161545 82.97239495 95.32161545 82.97239495 91.51000977 79.63491821 C88.98225625 75.84328795 89.28557941 72.8261779 89.38500977 68.44741821 C89.3940332 67.69782837 89.40305664 66.94823853 89.41235352 66.17593384 C89.43588399 64.32879167 89.47175415 62.48181409 89.51000977 60.63491821 C90.17000977 60.30491821 90.83000977 59.97491821 91.51000977 59.63491821 C92.99500977 60.62491821 92.99500977 60.62491821 94.51000977 61.63491821 C95.50000977 61.63491821 96.49000977 61.63491821 97.51000977 61.63491821 C98.52510971 49.11945422 98.52510971 49.11945422 97.51000977 36.63491821 C96.64375977 37.12991821 96.64375977 37.12991821 95.76000977 37.63491821 C93.51000977 38.63491821 93.51000977 38.63491821 89.51000977 38.63491821 C89.44942383 37.59851196 89.38883789 36.56210571 89.32641602 35.49429321 C89.24197606 34.12448948 89.1573298 32.75469846 89.07250977 31.38491821 C89.03319336 30.70300415 88.99387695 30.02109009 88.95336914 29.31851196 C88.74334504 25.9904378 88.49066975 22.8323642 87.51000977 19.63491821 C84.39969676 18.7269223 81.59708946 18.49833551 78.36181641 18.4737854 C77.33717789 18.46417786 76.31253937 18.45457031 75.2568512 18.44467163 C74.15574509 18.44042175 73.05463898 18.43617187 71.92016602 18.43179321 C70.78348984 18.42609314 69.64681366 18.42039307 68.47569275 18.41452026 C66.07250904 18.40507835 63.66931244 18.3985395 61.26611328 18.39468384 C57.59002173 18.38496451 53.91448608 18.35392715 50.23852539 18.32241821 C47.90324225 18.31588929 45.56795512 18.31063838 43.23266602 18.30679321 C42.13358414 18.29444641 41.03450226 18.28209961 39.90211487 18.26937866 C38.87432419 18.27237976 37.84653351 18.27538086 36.78759766 18.2784729 C35.88699112 18.27482727 34.98638458 18.27118164 34.05848694 18.26742554 C30.91629034 18.72053308 29.04472493 19.74440136 26.51000977 21.63491821 C25.46024012 24.78422715 25.40869382 27.02306278 25.44750977 30.32241821 C25.4565332 31.3162854 25.46555664 32.31015259 25.47485352 33.33413696 C25.48645508 34.09339478 25.49805664 34.85265259 25.51000977 35.63491821 C26.50000977 34.97491821 27.49000977 34.31491821 28.51000977 33.63491821 C31.19750977 34.00991821 31.19750977 34.00991821 33.51000977 34.63491821 C34.5163184 37.6538441 34.63898977 39.69787997 34.64282227 42.85366821 C34.64475586 44.37540649 34.64475586 44.37540649 34.64672852 45.92788696 C34.64286133 46.98620728 34.63899414 48.04452759 34.63500977 49.13491821 C34.64081055 50.72239868 34.64081055 50.72239868 34.64672852 52.34194946 C34.64543945 53.35644165 34.64415039 54.37093384 34.64282227 55.41616821 C34.64169434 56.34493774 34.64056641 57.27370728 34.6394043 58.23062134 C34.51000977 60.63491821 34.51000977 60.63491821 33.51000977 63.63491821 C31.76000977 64.50991821 31.76000977 64.50991821 29.51000977 64.63491821 C27.81784652 63.67869579 26.14778018 62.68157281 24.51000977 61.63491821 C24.55641602 62.74351196 24.60282227 63.85210571 24.65063477 64.99429321 C24.68816078 66.45780789 24.72456006 67.92135177 24.76000977 69.38491821 C24.79352539 70.11452759 24.82704102 70.84413696 24.86157227 71.59585571 C24.92709664 75.19969625 24.85377252 77.18887894 22.61938477 80.08804321 C17.83628722 83.59564808 13.01902334 82.89455089 7.26000977 82.94741821 C6.22231445 82.97642212 5.18461914 83.00542603 4.11547852 83.03530884 C-2.0635778 83.08660369 -5.82926856 82.84989972 -10.48999023 78.63491821 C-12.08411307 75.44667254 -11.59173759 72.00595159 -11.55249023 68.50991821 C-11.54797852 67.75581665 -11.5434668 67.00171509 -11.53881836 66.22476196 C-11.52702523 64.36144695 -11.50908965 62.49817266 -11.48999023 60.63491821 C-8.37741454 60.63491821 -6.38233339 60.80853445 -3.48999023 61.63491821 C-2.56325217 58.85470403 -2.36143258 57.16257931 -2.35717773 54.29116821 C-2.35588867 53.45714478 -2.35459961 52.62312134 -2.35327148 51.76382446 C-2.35713867 50.8962854 -2.36100586 50.02874634 -2.36499023 49.13491821 C-2.36112305 48.26737915 -2.35725586 47.39984009 -2.35327148 46.50601196 C-2.35456055 45.67198853 -2.35584961 44.83796509 -2.35717773 43.97866821 C-2.35830566 43.21747681 -2.35943359 42.4562854 -2.3605957 41.67202759 C-2.41581873 39.43167633 -2.41581873 39.43167633 -3.48999023 36.63491821 C-4.35624023 36.88241821 -4.35624023 36.88241821 -5.23999023 37.13491821 C-7.48999023 37.63491821 -7.48999023 37.63491821 -11.48999023 37.63491821 C-11.6139617 33.16927521 -11.70450015 28.70455383 -11.76464844 24.23770142 C-11.78973133 22.7196202 -11.82380683 21.20165903 -11.8671875 19.68399048 C-11.92812316 17.49675856 -11.95625919 15.31112782 -11.97827148 13.12319946 C-12.00445557 11.80875854 -12.03063965 10.49431763 -12.05761719 9.14004517 C-10.93459261 2.20530801 -6.62680819 0.01096501 0 0 Z " fill="#FEBC2B" transform="translate(11.489990234375,-0.634918212890625)"/>
<path d="M0 0 C1.31225555 -0.01409912 2.62451111 -0.02819824 3.97653198 -0.04272461 C5.42389262 -0.03300383 6.87124985 -0.02276303 8.31860352 -0.01205444 C9.84816529 -0.01883221 11.3777189 -0.02773624 12.90725708 -0.03860474 C17.05612851 -0.06138622 21.20437783 -0.05256683 25.35326004 -0.03670931 C29.69646116 -0.02404422 34.03960927 -0.03579211 38.3828125 -0.04364014 C45.67628537 -0.05273495 52.96950503 -0.0407533 60.26293945 -0.01693726 C68.69339127 0.01027383 77.12323849 0.00145954 85.55367565 -0.02606928 C92.79376238 -0.04876424 100.03366716 -0.05195859 107.27377796 -0.03887594 C111.59716005 -0.0310835 115.92025802 -0.03003397 120.24362183 -0.04655838 C124.30847325 -0.06100968 128.37254575 -0.05097025 132.43731308 -0.0220871 C133.92843203 -0.01547968 135.41961661 -0.01736822 136.91070938 -0.02840042 C138.94712217 -0.0420774 140.98367834 -0.02187883 143.02001953 0 C144.72896141 0.00282769 144.72896141 0.00282769 146.47242737 0.00571251 C150.48216313 0.83629035 151.9904821 2.47209935 154.51000977 5.63491821 C155.07763672 9.04824829 155.07763672 9.04824829 154.99829102 12.90444946 C154.98767891 13.92595345 154.98767891 13.92595345 154.97685242 14.96809387 C154.94901045 17.12901816 154.88630503 19.28728643 154.82250977 21.44741821 C154.79741308 22.91808373 154.7746023 24.38879015 154.75415039 25.85952759 C154.69922164 29.45217778 154.61302624 33.04328849 154.51000977 36.63491821 C155.50000977 35.97491821 156.49000977 35.31491821 157.51000977 34.63491821 C160.19750977 34.50991821 160.19750977 34.50991821 162.51000977 34.63491821 C165.05852538 39.50857358 164.84193048 44.27480079 164.82250977 49.63491821 C164.83862305 50.52437134 164.85473633 51.41382446 164.87133789 52.33023071 C164.87502319 57.26853699 164.6961284 60.59972839 161.51000977 64.63491821 C159.86000977 64.30491821 158.21000977 63.97491821 156.51000977 63.63491821 C156.51000977 62.97491821 156.51000977 62.31491821 156.51000977 61.63491821 C155.85000977 61.63491821 155.19000977 61.63491821 154.51000977 61.63491821 C154.55641602 62.6597229 154.60282227 63.68452759 154.65063477 64.74038696 C154.68816988 66.10103477 154.72456817 67.46171427 154.76000977 68.82241821 C154.79352539 69.49595337 154.82704102 70.16948853 154.86157227 70.86343384 C154.932192 74.48269512 154.61554188 76.46602172 152.68188477 79.56069946 C149.46393794 82.63395444 146.83501711 82.76309594 142.56713867 82.79605103 C141.06009872 82.81046234 141.06009872 82.81046234 139.52261353 82.82516479 C138.43821991 82.82941467 137.35382629 82.83366455 136.23657227 82.83804321 C134.56272964 82.84659332 134.56272964 82.84659332 132.85507202 82.85531616 C130.49299061 82.86476655 128.13089601 82.8713003 125.76879883 82.87515259 C122.15626026 82.8848611 118.54428986 82.91588604 114.93188477 82.94741821 C112.63761731 82.95394802 110.34334579 82.95919858 108.04907227 82.96304321 C106.42855453 82.98156342 106.42855453 82.98156342 104.77529907 83.00045776 C95.32161545 82.97239495 95.32161545 82.97239495 91.51000977 79.63491821 C88.98225625 75.84328795 89.28557941 72.8261779 89.38500977 68.44741821 C89.3940332 67.69782837 89.40305664 66.94823853 89.41235352 66.17593384 C89.43588399 64.32879167 89.47175415 62.48181409 89.51000977 60.63491821 C90.17000977 60.30491821 90.83000977 59.97491821 91.51000977 59.63491821 C92.99500977 60.62491821 92.99500977 60.62491821 94.51000977 61.63491821 C95.50000977 61.63491821 96.49000977 61.63491821 97.51000977 61.63491821 C98.52510971 49.11945422 98.52510971 49.11945422 97.51000977 36.63491821 C96.64375977 37.12991821 96.64375977 37.12991821 95.76000977 37.63491821 C93.51000977 38.63491821 93.51000977 38.63491821 89.51000977 38.63491821 C89.44942383 37.59851196 89.38883789 36.56210571 89.32641602 35.49429321 C89.24197606 34.12448948 89.1573298 32.75469846 89.07250977 31.38491821 C89.03319336 30.70300415 88.99387695 30.02109009 88.95336914 29.31851196 C88.74334504 25.9904378 88.49066975 22.8323642 87.51000977 19.63491821 C84.39969676 18.7269223 81.59708946 18.49833551 78.36181641 18.4737854 C77.33717789 18.46417786 76.31253937 18.45457031 75.2568512 18.44467163 C74.15574509 18.44042175 73.05463898 18.43617187 71.92016602 18.43179321 C70.78348984 18.42609314 69.64681366 18.42039307 68.47569275 18.41452026 C66.07250904 18.40507835 63.66931244 18.3985395 61.26611328 18.39468384 C57.59002173 18.38496451 53.91448608 18.35392715 50.23852539 18.32241821 C47.90324225 18.31588929 45.56795512 18.31063838 43.23266602 18.30679321 C42.13358414 18.29444641 41.03450226 18.28209961 39.90211487 18.26937866 C38.87432419 18.27237976 37.84653351 18.27538086 36.78759766 18.2784729 C35.88699112 18.27482727 34.98638458 18.27118164 34.05848694 18.26742554 C30.91629034 18.72053308 29.04472493 19.74440136 26.51000977 21.63491821 C25.46024012 24.78422715 25.40869382 27.02306278 25.44750977 30.32241821 C25.4565332 31.3162854 25.46555664 32.31015259 25.47485352 33.33413696 C25.48645508 34.09339478 25.49805664 34.85265259 25.51000977 35.63491821 C26.50000977 34.97491821 27.49000977 34.31491821 28.51000977 33.63491821 C31.19750977 34.00991821 31.19750977 34.00991821 33.51000977 34.63491821 C34.5163184 37.6538441 34.63898977 39.69787997 34.64282227 42.85366821 C34.64475586 44.37540649 34.64475586 44.37540649 34.64672852 45.92788696 C34.64286133 46.98620728 34.63899414 48.04452759 34.63500977 49.13491821 C34.64081055 50.72239868 34.64081055 50.72239868 34.64672852 52.34194946 C34.64543945 53.35644165 34.64415039 54.37093384 34.64282227 55.41616821 C34.64169434 56.34493774 34.64056641 57.27370728 34.6394043 58.23062134 C34.51000977 60.63491821 34.51000977 60.63491821 33.51000977 63.63491821 C31.76000977 64.50991821 31.76000977 64.50991821 29.51000977 64.63491821 C27.81784652 63.67869579 26.14778018 62.68157281 24.51000977 61.63491821 C24.55641602 62.74351196 24.60282227 63.85210571 24.65063477 64.99429321 C24.68816078 66.45780789 24.72456006 67.92135177 24.76000977 69.38491821 C24.79352539 70.11452759 24.82704102 70.84413696 24.86157227 71.59585571 C24.92709664 75.19969625 24.85377252 77.18887894 22.61938477 80.08804321 C17.83628722 83.59564808 13.01902334 82.89455089 7.26000977 82.94741821 C6.22231445 82.97642212 5.18461914 83.00542603 4.11547852 83.03530884 C-2.0635778 83.08660369 -5.82926856 82.84989972 -10.48999023 78.63491821 C-12.08411307 75.44667254 -11.59173759 72.00595159 -11.55249023 68.50991821 C-11.54797852 67.75581665 -11.5434668 67.00171509 -11.53881836 66.22476196 C-11.52702523 64.36144695 -11.50908965 62.49817266 -11.48999023 60.63491821 C-8.37741454 60.63491821 -6.38233339 60.80853445 -3.48999023 61.63491821 C-2.56325217 58.85470403 -2.36143258 57.16257931 -2.35717773 54.29116821 C-2.35588867 53.45714478 -2.35459961 52.62312134 -2.35327148 51.76382446 C-2.35713867 50.8962854 -2.36100586 50.02874634 -2.36499023 49.13491821 C-2.36112305 48.26737915 -2.35725586 47.39984009 -2.35327148 46.50601196 C-2.35456055 45.67198853 -2.35584961 44.83796509 -2.35717773 43.97866821 C-2.35830566 43.21747681 -2.35943359 42.4562854 -2.3605957 41.67202759 C-2.41581873 39.43167633 -2.41581873 39.43167633 -3.48999023 36.63491821 C-4.35624023 36.88241821 -4.35624023 36.88241821 -5.23999023 37.13491821 C-7.48999023 37.63491821 -7.48999023 37.63491821 -11.48999023 37.63491821 C-11.6139617 33.16927521 -11.70450015 28.70455383 -11.76464844 24.23770142 C-11.78973133 22.7196202 -11.82380683 21.20165903 -11.8671875 19.68399048 C-11.92812316 17.49675856 -11.95625919 15.31112782 -11.97827148 13.12319946 C-12.00445557 11.80875854 -12.03063965 10.49431763 -12.05761719 9.14004517 C-10.93459261 2.20530801 -6.62680819 0.01096501 0 0 Z M-9.48999023 5.63491821 C-10.0439113 8.82848155 -10.0439113 8.82848155 -9.88061523 12.49038696 C-9.87495544 13.15202347 -9.86929565 13.81365997 -9.86346436 14.49534607 C-9.84110271 16.60511154 -9.79091394 18.71316773 -9.73999023 20.82241821 C-9.71992463 22.25403428 -9.70167395 23.68567701 -9.68530273 25.11734009 C-9.64124092 28.62375336 -9.572218 32.12916893 -9.48999023 35.63491821 C-8.35561523 35.44929321 -7.22124023 35.26366821 -6.05249023 35.07241821 C-4.87686523 34.92804321 -3.70124023 34.78366821 -2.48999023 34.63491821 C-0.68719832 36.43771013 -1.35962418 39.17539523 -1.35717773 41.60366821 C-1.35524414 43.41931274 -1.35524414 43.41931274 -1.35327148 45.27163696 C-1.35713867 46.54651978 -1.36100586 47.82140259 -1.36499023 49.13491821 C-1.36112305 50.40980103 -1.35725586 51.68468384 -1.35327148 52.99819946 C-1.35456055 54.20862915 -1.35584961 55.41905884 -1.35717773 56.66616821 C-1.35830566 57.78571899 -1.35943359 58.90526978 -1.3605957 60.05874634 C-1.48999023 62.63491821 -1.48999023 62.63491821 -2.48999023 63.63491821 C-7.02487396 63.86747635 -7.02487396 63.86747635 -9.48999023 62.63491821 C-9.62525163 64.88326317 -9.72209828 67.13394335 -9.80249023 69.38491821 C-9.86049805 70.63788696 -9.91850586 71.89085571 -9.97827148 73.18179321 C-9.7668177 76.66627664 -9.7668177 76.66627664 -7.68920898 79.05288696 C-2.84631934 81.4477225 1.6794102 81.25398512 7.01000977 81.19741821 C8.04254883 81.22126587 9.07508789 81.24511353 10.13891602 81.26968384 C14.82942775 81.26060543 17.68372303 81.15550913 21.70922852 78.61929321 C24.09145525 74.67130791 24.08442693 71.83142293 23.82250977 67.32241821 C23.78867188 66.2115686 23.78867188 66.2115686 23.75415039 65.07827759 C23.69559126 63.26294464 23.60591863 61.44866141 23.51000977 59.63491821 C25.44750977 60.00991821 25.44750977 60.00991821 27.51000977 60.63491821 C27.84000977 61.29491821 28.17000977 61.95491821 28.51000977 62.63491821 C29.50000977 62.63491821 30.49000977 62.63491821 31.51000977 62.63491821 C32.81476594 60.02540586 32.62302549 58.10790536 32.60766602 55.18960571 C32.60444336 54.11323853 32.6012207 53.03687134 32.59790039 51.92788696 C32.58952148 50.79995728 32.58114258 49.67202759 32.57250977 48.50991821 C32.56799805 47.37425415 32.56348633 46.23859009 32.55883789 45.06851196 C32.54702592 42.25726183 32.53055484 39.44611591 32.51000977 36.63491821 C29.48581452 37.22295618 26.49242523 37.86169939 23.51000977 38.63491821 C23.57010368 35.88261673 23.65713598 33.13567381 23.76000977 30.38491821 C23.77418945 29.60761353 23.78836914 28.83030884 23.80297852 28.02944946 C24.05088576 22.22841998 24.05088576 22.22841998 26.43188477 19.15054321 C29.71498147 16.75610426 31.58795388 16.50009687 35.61474609 16.45791626 C37.21199272 16.43866341 37.21199272 16.43866341 38.84150696 16.41902161 C40.57427132 16.40794121 40.57427132 16.40794121 42.34204102 16.39663696 C43.52593918 16.38856522 44.70983734 16.38049347 45.92961121 16.37217712 C48.43889904 16.35832758 50.94820578 16.34760934 53.45751953 16.3397522 C57.29634261 16.32253557 61.13430559 16.27865503 64.97290039 16.23452759 C67.40844092 16.22440133 69.84398878 16.21588502 72.27954102 16.20913696 C73.42864456 16.19162888 74.57774811 16.17412079 75.76167297 16.15608215 C83.74033816 16.17781016 83.74033816 16.17781016 87.71191406 18.53652954 C90.8492086 22.19777143 90.76924016 24.99425294 91.07250977 29.75991821 C91.15629883 31.04124634 91.24008789 32.32257446 91.32641602 33.64273071 C91.38700195 34.63015259 91.44758789 35.61757446 91.51000977 36.63491821 C92.50000977 35.97491821 93.49000977 35.31491821 94.51000977 34.63491821 C97.13500977 34.88491821 97.13500977 34.88491821 99.51000977 35.63491821 C101.56218813 39.73927495 100.69490089 45.06166949 100.69750977 49.57241821 C100.70975586 50.68294556 100.72200195 51.7934729 100.73461914 52.93765259 C100.73655273 54.00177368 100.73848633 55.06589478 100.74047852 56.16226196 C100.7445874 57.13929077 100.74869629 58.11631958 100.75292969 59.12295532 C100.51000977 61.63491821 100.51000977 61.63491821 98.51000977 64.63491821 C93.76000977 63.75991821 93.76000977 63.75991821 91.51000977 62.63491821 C91.37474837 64.88326317 91.27790172 67.13394335 91.19750977 69.38491821 C91.13950195 70.63788696 91.08149414 71.89085571 91.02172852 73.18179321 C91.20644335 76.65292448 91.20644335 76.65292448 93.30786133 78.8175354 C98.16537839 81.57442447 102.73783129 81.2066486 108.23266602 81.16616821 C109.93911537 81.17190857 109.93911537 81.17190857 111.68003845 81.17776489 C114.08146043 81.18048338 116.48291206 81.17312676 118.88427734 81.15640259 C122.56292556 81.13497404 126.23962498 81.15621843 129.91821289 81.18179321 C132.25220158 81.17915032 134.58618906 81.17402613 136.92016602 81.16616821 C138.02127213 81.17426514 139.12237823 81.18236206 140.2568512 81.19070435 C141.28148972 81.1780957 142.30612823 81.16548706 143.36181641 81.15249634 C144.26162735 81.14931396 145.16143829 81.14613159 146.08851624 81.14285278 C149.3163887 80.46577147 150.50819941 79.21347191 152.51000977 76.63491821 C152.95889547 73.76895562 153.20426175 71.25340711 153.26000977 68.38491821 C153.2896582 67.63984009 153.31930664 66.89476196 153.34985352 66.12710571 C153.42024406 64.2969515 153.46742808 62.46593052 153.51000977 60.63491821 C155.58306934 61.14775056 157.64389153 61.67317015 159.69750977 62.25991821 C160.29563477 62.38366821 160.89375977 62.50741821 161.51000977 62.63491821 C163.15384946 60.99107852 162.6399804 59.09113431 162.64282227 56.83023071 C162.64475586 55.36650024 162.64475586 55.36650024 162.64672852 53.87319946 C162.64286133 52.84581665 162.63899414 51.81843384 162.63500977 50.75991821 C162.63887695 49.74026978 162.64274414 48.72062134 162.64672852 47.67007446 C162.64543945 46.69167603 162.64415039 45.71327759 162.64282227 44.70523071 C162.64113037 43.35582397 162.64113037 43.35582397 162.6394043 41.97915649 C162.60470297 39.47989381 162.60470297 39.47989381 161.51000977 36.63491821 C160.93250977 36.79991821 160.35500977 36.96491821 159.76000977 37.13491821 C157.51000977 37.63491821 157.51000977 37.63491821 153.51000977 37.63491821 C153.50066406 36.71678345 153.49131836 35.79864868 153.48168945 34.85269165 C153.43761045 31.43786543 153.37597244 28.02428713 153.30249023 24.61001587 C153.27430889 23.13389625 153.25308011 21.65762653 153.23901367 20.18130493 C153.21754279 18.05568765 153.17087934 15.93186943 153.11938477 13.80679321 C153.0984375 12.52901001 153.07749023 11.25122681 153.0559082 9.9347229 C152.40390609 5.99355093 151.62955985 5.04774046 148.51000977 2.63491821 C145.55141068 2.03718792 145.55141068 2.03718792 142.20947266 2.13371277 C140.91397491 2.12387863 139.61847717 2.11404449 138.28372192 2.10391235 C136.85003399 2.11328417 135.41634868 2.12306347 133.98266602 2.13320923 C132.47133888 2.12942582 130.9600152 2.12392559 129.44869995 2.11683655 C125.34534604 2.10286735 121.24241074 2.11406176 117.13908005 2.13054776 C112.8461346 2.14439169 108.55321362 2.13793893 104.26025391 2.13441467 C97.05079395 2.13171203 89.84150043 2.14519278 82.63208008 2.16836548 C74.29547833 2.19497561 65.95915488 2.19672255 57.62252522 2.18497711 C49.6049118 2.17420004 41.58739912 2.18038583 33.5697937 2.19453239 C30.15678529 2.20029283 26.74385057 2.20020907 23.33084106 2.195467 C19.31213614 2.19069666 15.29373617 2.20080101 11.27508926 2.22242165 C9.79967401 2.22798895 8.32422944 2.22845531 6.8488121 2.22346878 C4.83605023 2.21751899 2.82325872 2.23185012 0.81054688 2.24723816 C-0.31621964 2.24966805 -1.44298615 2.25209795 -2.60389709 2.25460148 C-5.8283519 2.67950603 -7.22644501 3.32349121 -9.48999023 5.63491821 Z " fill="#B37A1B" transform="translate(11.489990234375,-0.634918212890625)"/>
<path d="M0 0 C1.31948135 -0.00687332 2.63896271 -0.01374664 3.99842834 -0.02082825 C5.45372581 -0.00313454 6.9090175 0.01503948 8.36430359 0.03364563 C9.9019669 0.03505651 11.43963357 0.03426334 12.97729492 0.03143311 C17.14658307 0.02999908 21.31515133 0.05938605 25.48427224 0.09430289 C29.84310518 0.12556897 34.2019548 0.12849732 38.56088257 0.13442993 C46.81279553 0.14996767 55.0643771 0.19099509 63.31614417 0.24117738 C72.71143958 0.29707309 82.10675085 0.3245579 91.50217116 0.34965456 C110.82709 0.40191108 130.15170042 0.48985192 149.47636414 0.60127258 C149.80636414 1.26127258 150.13636414 1.92127258 150.47636414 2.60127258 C149.67606907 2.60273914 148.875774 2.6042057 148.05122757 2.60571671 C128.58870767 2.64274962 109.12636777 2.7017175 89.66399002 2.78517532 C80.25216125 2.82500441 70.84041656 2.8573772 61.42851257 2.87226868 C53.22619852 2.88526518 45.02406917 2.91217845 36.82185912 2.95588565 C32.47780091 2.97854568 28.13397089 2.99418056 23.78984833 2.99315643 C19.70216023 2.99241249 15.61497744 3.01025563 11.52742004 3.04244041 C10.02622023 3.05096882 8.52496392 3.05266945 7.02375031 3.04707527 C4.97572574 3.04045921 2.92766665 3.06067454 0.87974548 3.08229065 C-0.84032022 3.08782141 -0.84032022 3.08782141 -2.59513474 3.0934639 C-6.1754051 3.71429083 -7.35869563 4.72857033 -9.52363586 7.60127258 C-10.16506915 10.88243334 -10.16506915 10.88243334 -10.13301086 14.55439758 C-10.14954712 15.21461914 -10.16608337 15.8748407 -10.18312073 16.55506897 C-10.23152037 18.65389885 -10.25295105 20.7520048 -10.27363586 22.85127258 C-10.3018027 24.27839218 -10.33173115 25.70547817 -10.36347961 27.13252258 C-10.4372735 30.62194867 -10.48689865 34.11123731 -10.52363586 37.60127258 C-10.85363586 37.60127258 -11.18363586 37.60127258 -11.52363586 37.60127258 C-11.64760733 33.13562958 -11.73814578 28.6709082 -11.79829407 24.20405579 C-11.82337696 22.68597457 -11.85745246 21.1680134 -11.90083313 19.65034485 C-11.96176879 17.46311293 -11.98990482 15.27748219 -12.01191711 13.08955383 C-12.0381012 11.77511292 -12.06428528 10.460672 -12.09126282 9.10639954 C-10.96388591 2.14478655 -6.64701468 -0.02673779 0 0 Z " fill="#C3851C" transform="translate(11.523635864257813,-0.6012725830078125)"/>
<path d="M0 0 C0.226875 0.5775 0.45375 1.155 0.6875 1.75 C2.51124441 4.876419 3.84589258 6.10573195 7 8 C10.9485158 8.62199862 14.87217096 8.60496379 18.86328125 8.609375 C20.01040085 8.62591125 21.15752045 8.64244751 22.33940125 8.65948486 C25.99715509 8.70800391 29.65449303 8.72934551 33.3125 8.75 C35.79494284 8.77815625 38.27736628 8.80808318 40.75976562 8.83984375 C46.83976815 8.91376412 52.91965352 8.96538385 59 9 C58.67 9.66 58.34 10.32 58 11 C50.82843832 11.07609679 43.65698086 11.12861962 36.48510742 11.16479492 C34.04561472 11.17987654 31.6061491 11.20034469 29.16674805 11.22631836 C25.65927441 11.26272812 22.15215946 11.27973289 18.64453125 11.29296875 C17.55477493 11.30845261 16.46501862 11.32393646 15.34223938 11.33988953 C5.79855873 11.34200824 5.79855873 11.34200824 2 8 C-0.1519437 4.77208445 -0.20086443 3.71599191 0 0 Z " fill="#9C6918" transform="translate(101,71)"/>
<path d="M0 0 C0.33 0 0.66 0 1 0 C1.33 8.91 1.66 17.82 2 27 C2.33 26.67 2.66 26.34 3 26 C5.4375 25.8125 5.4375 25.8125 8 26 C10.72234602 28.72234602 10.25788057 30.22762873 10.265625 34.03125 C10.26820312 35.23394531 10.27078125 36.43664063 10.2734375 37.67578125 C10.26570312 38.93777344 10.25796875 40.19976562 10.25 41.5 C10.25773438 42.76199219 10.26546875 44.02398437 10.2734375 45.32421875 C10.27085938 46.52691406 10.26828125 47.72960938 10.265625 48.96875 C10.26336914 50.07669922 10.26111328 51.18464844 10.25878906 52.32617188 C10 55 10 55 8 57 C5.4375 57.1875 5.4375 57.1875 3 57 C2.67 56.67 2.34 56.34 2 56 C1.67 59.63 1.34 63.26 1 67 C0.67 67 0.34 67 0 67 C0 62.38 0 57.76 0 53 C2.62113708 53 4.50935112 53.31292445 7 54 C7.92673806 51.21978582 8.12855766 49.52766109 8.1328125 46.65625 C8.13410156 45.82222656 8.13539062 44.98820312 8.13671875 44.12890625 C8.13285156 43.26136719 8.12898437 42.39382812 8.125 41.5 C8.12886719 40.63246094 8.13273438 39.76492187 8.13671875 38.87109375 C8.13542969 38.03707031 8.13414063 37.20304687 8.1328125 36.34375 C8.13168457 35.58255859 8.13055664 34.82136719 8.12939453 34.03710938 C8.0741715 31.79675812 8.0741715 31.79675812 7 29 C4.61435923 29.57584432 2.33317216 30.22227595 0 31 C0 20.77 0 10.54 0 0 Z " fill="#B77C1B" transform="translate(1,7)"/>
<path d="M0 0 C2.98178775 2.34209626 3.92828095 3.47884158 4.45410156 7.29980469 C4.4331543 8.57758789 4.41220703 9.85537109 4.390625 11.171875 C4.38496521 11.8542926 4.37930542 12.53671021 4.37347412 13.23980713 C4.35115636 15.41059762 4.30097508 17.57971206 4.25 19.75 C4.22992876 21.2252365 4.21167907 22.70049899 4.1953125 24.17578125 C4.1513088 27.78439501 4.08231583 31.39203381 4 35 C4.99 34.34 5.98 33.68 7 33 C9.6875 32.875 9.6875 32.875 12 33 C12.33 33.99 12.66 34.98 13 36 C12.34 36.66 11.68 37.32 11 38 C11 37.01 11 36.02 11 35 C10.2575 35.53625 9.515 36.0725 8.75 36.625 C7.38875 37.305625 7.38875 37.305625 6 38 C4.68 37.34 3.36 36.68 2 36 C1.67 25.11 1.34 14.22 1 3 C0.01 2.67 -0.98 2.34 -2 2 C-1.34 1.34 -0.68 0.68 0 0 Z " fill="#BF821C" transform="translate(162,1)"/>
<path d="M0 0 C0.33 0 0.66 0 1 0 C1.01417969 0.95261719 1.02835937 1.90523437 1.04296875 2.88671875 C1.11451172 4.76810547 1.11451172 4.76810547 1.1875 6.6875 C1.22230469 7.92886719 1.25710937 9.17023438 1.29296875 10.44921875 C1.79216552 14.04785845 1.79216552 14.04785845 3.8125 16.90625 C8.62125964 20.06494506 13.17478098 19.7815046 18.8125 19.8125 C19.88693359 19.83763672 20.96136719 19.86277344 22.06835938 19.88867188 C24.71260771 19.94743295 27.35520488 19.98379376 30 20 C30 20.66 30 21.32 30 22 C26.29193404 22.11674705 22.5843446 22.18743274 18.875 22.25 C17.82828125 22.28351563 16.7815625 22.31703125 15.703125 22.3515625 C9.48377225 22.43028848 5.68630231 22.26027483 1 18 C-0.59412284 14.81175432 -0.10174735 11.37103338 -0.0625 7.875 C-0.05798828 7.12089844 -0.05347656 6.36679688 -0.04882812 5.58984375 C-0.03703499 3.72652873 -0.01909942 1.86325445 0 0 Z " fill="#9C6918" transform="translate(0,60)"/>
<path d="M0 0 C2.86545595 2.86545595 2.31629628 4.96814756 2.4140625 8.9765625 C2.43342865 9.66181 2.4527948 10.3470575 2.4727478 11.05307007 C2.53256831 13.24358644 2.57893756 15.4341553 2.625 17.625 C2.66317763 19.10939802 2.70222924 20.59377384 2.7421875 22.078125 C2.83827084 25.71854685 2.92229282 29.35913436 3 33 C6.11257569 33 8.10765685 32.82638376 11 32 C10.67 33.32 10.34 34.64 10 36 C9.34 36 8.68 36 8 36 C6.33034549 36.31802943 4.66321482 36.64984951 3 37 C0.56224731 33.34337096 0.65313456 30.50584571 0.5859375 26.26953125 C0.56657135 25.51911057 0.5472052 24.76868988 0.5272522 23.99552917 C0.46752541 21.60130133 0.42109935 19.20702523 0.375 16.8125 C0.3368138 15.1881302 0.29776169 13.56378052 0.2578125 11.93945312 C0.16182975 7.95979895 0.07777364 3.98004999 0 0 Z " fill="#FED059" transform="translate(162,4)"/>
<path d="M0 0 C2 0.3125 2 0.3125 4 1 C4.33 1.66 4.66 2.32 5 3 C3.68 2.67 2.36 2.34 1 2 C1.04640625 3.02480469 1.0928125 4.04960938 1.140625 5.10546875 C1.17816011 6.46611656 1.21455841 7.82679605 1.25 9.1875 C1.28351563 9.86103516 1.31703125 10.53457031 1.3515625 11.22851562 C1.42334472 14.90735421 1.09429473 16.85095978 -0.890625 19.98828125 C-3 22 -3 22 -5 22 C-3.125 18.125 -3.125 18.125 -2 17 C-1.78916247 14.32939127 -1.62408803 11.6747865 -1.5 9 C-1.13513514 1.13513514 -1.13513514 1.13513514 0 0 Z " fill="#B87D1B" transform="translate(165,59)"/>
<path d="M0 0 C3.465 1.98 3.465 1.98 7 4 C7 4.33 7 4.66 7 5 C5.33388095 5.042721 3.66617115 5.04063832 2 5 C1.67 4.67 1.34 4.34 1 4 C0.67 7.63 0.34 11.26 0 15 C-0.33 15 -0.66 15 -1 15 C-1.02685412 12.68756208 -1.04632841 10.3750373 -1.0625 8.0625 C-1.07410156 6.77472656 -1.08570312 5.48695312 -1.09765625 4.16015625 C-1 1 -1 1 0 0 Z " fill="#C3851C" transform="translate(2,59)"/>
<path d="M0 0 C0.33 0 0.66 0 1 0 C1.03738281 0.95261719 1.07476562 1.90523437 1.11328125 2.88671875 C1.17902344 4.14097656 1.24476563 5.39523438 1.3125 6.6875 C1.37050781 7.92886719 1.42851562 9.17023438 1.48828125 10.44921875 C2.00910976 14.06321199 2.90154617 16.05766393 5 19 C3.0625 18.625 3.0625 18.625 1 18 C-0.59412284 14.81175432 -0.10174735 11.37103338 -0.0625 7.875 C-0.05798828 7.12089844 -0.05347656 6.36679688 -0.04882812 5.58984375 C-0.03703499 3.72652873 -0.01909942 1.86325445 0 0 Z " fill="#A9721A" transform="translate(0,60)"/>
<path d="M0 0 C0.33 0.99 0.66 1.98 1 3 C0.34 3.66 -0.32 4.32 -1 5 C-1 4.01 -1 3.02 -1 2 C-1.763125 2.515625 -2.52625 3.03125 -3.3125 3.5625 C-4.199375 4.036875 -5.08625 4.51125 -6 5 C-6.99 4.67 -7.98 4.34 -9 4 C-9 3.34 -9 2.68 -9 2 C-5.86501708 0.14223235 -3.62528568 -0.20140476 0 0 Z " fill="#BD811D" transform="translate(174,34)"/>
<path d="M0 0 C-0.33 1.32 -0.66 2.64 -1 4 C-1.66 4 -2.32 4 -3 4 C-4.66965451 4.31802943 -6.33678518 4.64984951 -8 5 C-8 4.34 -8 3.68 -8 3 C-5.09451118 0.95830515 -3.59857954 0 0 0 Z " fill="#FFD988" transform="translate(173,36)"/>
<path d="M0 0 C0.33 0.99 0.66 1.98 1 3 C-2 5 -2 5 -5.1875 4.625 C-6.115625 4.41875 -7.04375 4.2125 -8 4 C-8 3.34 -8 2.68 -8 2 C-7.05125 2.04125 -6.1025 2.0825 -5.125 2.125 C-1.89755144 2.34973818 -1.89755144 2.34973818 0 0 Z " fill="#FFD894" transform="translate(112,62)"/>
<path d="M0 0 C-3.08809695 1.76462683 -4.23312136 2 -8 2 C-8 1.01 -8 0.02 -8 -1 C-4.59745511 -2.2151946 -3.06748874 -1.86240388 0 0 Z " fill="#BE821E" transform="translate(43,36)"/>
</svg>
